<svg xmlns="http://www.w3.org/2000/svg" viewBox="0 0 4032 3024"><filter id="b"><feGaussianBlur stdDeviation="12" /></filter><path d="M0 0h4032v3024H0z" fill="#10333f" /><g filter="url(#b)" transform="scale(15.750000) translate(0.5 0.5)"><g transform="translate(114.384773 56.463859) rotate(177.187449) scale(46.754960 113.996675)"><ellipse fill="#409199" fill-opacity=".501961" cx="0" cy="0" rx="1" ry="1" /></g><g transform="translate(219.262206 172.320675) rotate(111.089602) scale(255.000000 48.738457)"><ellipse fill="#000" fill-opacity=".501961" cx="0" cy="0" rx="1" ry="1" /></g><g transform="translate(120.755448 72.038985) rotate(172.305151) scale(23.044340 36.126127)"><ellipse fill="#68baac" fill-opacity=".501961" cx="0" cy="0" rx="1" ry="1" /></g><g transform="translate(5.295607 36.857827) rotate(261.638986) scale(233.347535 33.494304)"><ellipse fill="#000" fill-opacity=".501961" cx="0" cy="0" rx="1" ry="1" /></g><ellipse fill="#001134" fill-opacity=".501961" cx="73" cy="128" rx="44" ry="34" /><ellipse fill="#1c5262" fill-opacity=".501961" cx="180" cy="67" rx="42" ry="42" /><path d="M0 0h4032v3024H0z" fill="#bfddc7" /><g transform="translate(216.709355 166.678194) rotate(-19.412262) scale(199.091076 35.932778)"><ellipse fill="#000018" fill-opacity=".501961" cx="0" cy="0" rx="1" ry="1" /></g></g></svg>