<svg xmlns="http://www.w3.org/2000/svg" viewBox="0 0 588 587"><filter id="b"><feGaussianBlur stdDeviation="12" /></filter><path d="M0 0h588v587H0z" fill="#4b4e38" /><g filter="url(#b)" transform="scale(2.296875) translate(0.5 0.5)"><g transform="translate(62.781855 238.491621) rotate(-11.736884) scale(89.435655 27.204882)"><ellipse fill="#bfbdbf" fill-opacity=".501961" cx="0" cy="0" rx="1" ry="1" /></g><g transform="translate(52.117545 86.018990) rotate(352.513138) scale(27.911401 75.706733)"><ellipse fill="#c3d085" fill-opacity=".501961" cx="0" cy="0" rx="1" ry="1" /></g><g transform="translate(203.209751 47.997463) rotate(360.824824) scale(93.129146 44.980280)"><ellipse fill="#000" fill-opacity=".501961" cx="0" cy="0" rx="1" ry="1" /></g><g transform="translate(104.441140 187.649857) rotate(170.613448) scale(96.511878 15.664482)"><ellipse fill="#010501" fill-opacity=".501961" cx="0" cy="0" rx="1" ry="1" /></g><ellipse fill="#000" fill-opacity=".501961" cx="11" cy="41" rx="12" ry="109" /><g transform="translate(246.576046 209.639919) rotate(153.942217) scale(69.290717 21.074667)"><ellipse fill="#00000a" fill-opacity=".501961" cx="0" cy="0" rx="1" ry="1" /></g><g transform="translate(134.353732 126.346290) rotate(257.783030) scale(25.983300 31.540363)"><ellipse fill="#84866a" fill-opacity=".501961" cx="0" cy="0" rx="1" ry="1" /></g><g transform="translate(117 7) rotate(69) scale(16 44)"><path d="M0 0h588v587H0z" fill="#d3d194" /></g></g></svg>