<svg xmlns="http://www.w3.org/2000/svg" viewBox="0 0 4032 2268"><filter id="b"><feGaussianBlur stdDeviation="12" /></filter><path d="M0 0h4032v2268H0z" fill="#4f6660" /><g filter="url(#b)" transform="scale(15.750000) translate(0.5 0.5)"><g transform="translate(116.194276 25.718706) rotate(171.211241) scale(80.287907 33.758284)"><ellipse fill="#eff" fill-opacity=".501961" cx="0" cy="0" rx="1" ry="1" /></g><g transform="translate(228.540351 108.680542) rotate(3.302153) scale(82.739906 49.977745)"><ellipse fill="#000300" fill-opacity=".501961" cx="0" cy="0" rx="1" ry="1" /></g><g transform="translate(44.918854 113.046453) rotate(105.442513) scale(50.162882 98.441414)"><ellipse fill="#1b2b03" fill-opacity=".501961" cx="0" cy="0" rx="1" ry="1" /></g><path fill="#93b5cf" fill-opacity=".501961" d="M147 65 271 18-9 29z" /><ellipse fill="#447eaf" fill-opacity=".501961" cx="26" cy="14" rx="45" ry="45" /><ellipse fill="#71884f" fill-opacity=".501961" cx="114" cy="108" rx="68" ry="16" /><ellipse fill="#d9dbdf" fill-opacity=".501961" cx="131" cy="20" rx="49" ry="19" /><g transform="translate(249.246050 103.430363) rotate(293.718818) scale(49.224562 28.841034)"><ellipse fill="#000900" fill-opacity=".501961" cx="0" cy="0" rx="1" ry="1" /></g></g></svg>