<svg width="28" height="28" fill="none" xmlns="http://www.w3.org/2000/svg"><rect width="28" height="28" rx="8" fill="#212121"/><path d="M15.92 4.5c.8 0 1.54.43 1.94 1.11L18.68 7h2.07C22.55 7 24 8.46 24 10.25v9.5c0 1.8-1.46 3.25-3.25 3.25H7.25A3.25 3.25 0 014 19.75v-9.5C4 8.45 5.46 7 7.25 7h2.08l.88-1.42a2.25 2.25 0 011.91-1.08h3.8zm0 1.5h-3.8c-.22 0-.43.1-.57.27l-.07.1-1.1 1.77a.75.75 0 01-.63.36h-2.5c-.97 0-1.75.78-1.75 1.75v9.5c0 .97.78 1.75 1.75 1.75h13.5c.97 0 1.75-.78 1.75-1.75v-9.5c0-.97-.78-1.75-1.75-1.75h-2.5a.75.75 0 01-.65-.37l-1.03-1.76a.75.75 0 00-.65-.37zM14 10a4.5 4.5 0 110 9 4.5 4.5 0 010-9zm0 1.5a3 3 0 100 6 3 3 0 000-6z" fill="#FFA154"/></svg>