<svg xmlns="http://www.w3.org/2000/svg" viewBox="0 0 3024 4032"><filter id="b"><feGaussianBlur stdDeviation="12" /></filter><path d="M0 0h3024v4032H0z" fill="#353541" /><g filter="url(#b)" transform="scale(15.750000) translate(0.5 0.5)"><g transform="translate(89.432795 85.472275) rotate(90.012959) scale(76.988263 39.831703)"><ellipse fill="#bec1c3" fill-opacity=".501961" cx="0" cy="0" rx="1" ry="1" /></g><g transform="translate(88.256351 218.362273) rotate(355.460145) scale(191.000000 53.163342)"><ellipse fill="#00000d" fill-opacity=".501961" cx="0" cy="0" rx="1" ry="1" /></g><g transform="translate(171.410156 77.757825) rotate(169.153678) scale(32.564807 136.500409)"><ellipse fill="#030213" fill-opacity=".501961" cx="0" cy="0" rx="1" ry="1" /></g><g transform="translate(69.989252 124.044383) rotate(66.729980) scale(79.500106 19.697155)"><ellipse fill="#65666d" fill-opacity=".501961" cx="0" cy="0" rx="1" ry="1" /></g><path fill="#fffff5" fill-opacity=".501961" d="M121 76 87 106l22 17z" /><g transform="translate(25.659850 151.881738) rotate(248.842789) scale(24.312921 49.186631)"><ellipse fill="#0d0f1e" fill-opacity=".501961" cx="0" cy="0" rx="1" ry="1" /></g><path fill="#b5bfd1" fill-opacity=".501961" d="M103 101 104-4 82 25z" /><ellipse fill="#676a7b" fill-opacity=".501961" cx="70" cy="34" rx="64" ry="13" /></g></svg>