<svg xmlns="http://www.w3.org/2000/svg" viewBox="0 0 3024 4032"><filter id="b"><feGaussianBlur stdDeviation="12" /></filter><path d="M0 0h3024v4032H0z" fill="#61635f" /><g filter="url(#b)" transform="scale(15.750000) translate(0.5 0.5)"><g transform="translate(140.836741 29.992678) rotate(43.782980) scale(191.000000 77.912781)"><ellipse fill="#f2f4f7" fill-opacity=".501961" cx="0" cy="0" rx="1" ry="1" /></g><g transform="translate(82.956831 185.152409) rotate(309.277736) scale(64.679155 191.000000)"><ellipse fill="#000" fill-opacity=".501961" cx="0" cy="0" rx="1" ry="1" /></g><g transform="translate(122.668441 116.058466) rotate(137.428475) scale(18.476947 32.128810)"><ellipse fill="#2b2a15" fill-opacity=".501961" cx="0" cy="0" rx="1" ry="1" /></g><g transform="translate(7.503946 229.719632) rotate(114.738570) scale(8.716055 59.572037)"><ellipse fill="#dde5f5" fill-opacity=".501961" cx="0" cy="0" rx="1" ry="1" /></g><g transform="translate(83.912830 69.035138) rotate(330.808204) scale(20.600674 28.573557)"><ellipse fill="#dedad4" fill-opacity=".501961" cx="0" cy="0" rx="1" ry="1" /></g><g transform="translate(12.249561 162.931966) rotate(121.804943) scale(33.110842 86.568627)"><ellipse fill="#040400" fill-opacity=".501961" cx="0" cy="0" rx="1" ry="1" /></g><ellipse fill="#76786c" fill-opacity=".501961" cx="77" cy="131" rx="22" ry="45" /><ellipse fill="#f1e6cd" fill-opacity=".501961" cx="168" cy="122" rx="16" ry="39" /></g></svg>