<svg xmlns="http://www.w3.org/2000/svg" viewBox="0 0 3958 2969"><filter id="b"><feGaussianBlur stdDeviation="12" /></filter><path d="M0 0h3958v2969H0z" fill="#8a96a0" /><g filter="url(#b)" transform="scale(15.460938) translate(0.5 0.5)"><g transform="translate(226.663034 110.776031) rotate(216.828101) scale(75.554865 35.580826)"><ellipse fill="#110b07" fill-opacity=".501961" cx="0" cy="0" rx="1" ry="1" /></g><g transform="translate(148.976953 14.490746) rotate(94.390989) scale(29.337803 205.342250)"><ellipse fill="#e2f8ff" fill-opacity=".501961" cx="0" cy="0" rx="1" ry="1" /></g><g transform="translate(43.723842 180.190227) rotate(287.940805) scale(46.070909 64.810327)"><ellipse fill="#faffff" fill-opacity=".501961" cx="0" cy="0" rx="1" ry="1" /></g><g transform="translate(199.232593 175.657468) rotate(6.236954) scale(112.091629 22.865525)"><ellipse fill="#402218" fill-opacity=".501961" cx="0" cy="0" rx="1" ry="1" /></g><path d="M0 0h3958v2969H0z" fill="#000c12" /><ellipse fill="#fff" fill-opacity=".501961" cx="125" cy="68" rx="34" ry="14" /><path d="M0 0h3958v2969H0z" fill="#000304" /><path fill="#fff" fill-opacity=".501961" d="M188 155l41-20-105 2z" /></g></svg>